<svg width="998" height="774" viewBox="0 0 748.5 580.5" xmlns="http://www.w3.org/2000/svg" xmlns:xlink="http://www.w3.org/1999/xlink">
<g id="graph0" class="graph" transform="translate(291.09088926011043,480.16812172731875) scale(0.5000000000000012)">
<title>whilegraph</title>
<polygon fill="white" stroke="none" points="-4,4 -4,-840 237.29,-840 237.29,4 -4,4"/>
<!-- node0 -->
<g id="node1" class="node">
<title>node0</title>
<polygon fill="none" stroke="black" points="233.29,-836 143,-836 143,-800 233.29,-800 233.29,-836"/>
<text text-anchor="middle" x="188.15" y="-813.8" font-family="Times,serif" font-size="14.00">PUSH1 0x00</text>
</g>
<!-- node2 -->
<g id="node2" class="node">
<title>node2</title>
<polygon fill="none" stroke="gray" points="231.54,-764 144.75,-764 144.75,-728 231.54,-728 231.54,-764"/>
<text text-anchor="middle" x="188.15" y="-741.8" font-family="Times,serif" font-size="14.00">JUMPDEST</text>
</g>
<!-- node0&#45;&gt;node2 -->
<g id="edge1" class="edge">
<title>node0-&gt;node2</title>
<path fill="none" stroke="black" d="M188.15,-799.7C188.15,-792.41 188.15,-783.73 188.15,-775.54"/>
<polygon fill="black" stroke="black" points="191.65,-775.62 188.15,-765.62 184.65,-775.62 191.65,-775.62"/>
</g>
<!-- node3 -->
<g id="node3" class="node">
<title>node3</title>
<polygon fill="none" stroke="gray" points="197.29,-692 107,-692 107,-656 197.29,-656 197.29,-692"/>
<text text-anchor="middle" x="152.15" y="-669.8" font-family="Times,serif" font-size="14.00">PUSH1 0x03</text>
</g>
<!-- node2&#45;&gt;node3 -->
<g id="edge2" class="edge">
<title>node2-&gt;node3</title>
<path fill="none" stroke="black" d="M179.25,-727.7C175.28,-719.98 170.51,-710.71 166.09,-702.11"/>
<polygon fill="black" stroke="black" points="169.32,-700.74 161.64,-693.45 163.1,-703.94 169.32,-700.74"/>
</g>
<!-- node5 -->
<g id="node4" class="node">
<title>node5</title>
<polygon fill="none" stroke="gray" points="179.15,-620 125.15,-620 125.15,-584 179.15,-584 179.15,-620"/>
<text text-anchor="middle" x="152.15" y="-597.8" font-family="Times,serif" font-size="14.00">DUP2</text>
</g>
<!-- node3&#45;&gt;node5 -->
<g id="edge3" class="edge">
<title>node3-&gt;node5</title>
<path fill="none" stroke="black" d="M152.15,-655.7C152.15,-648.41 152.15,-639.73 152.15,-631.54"/>
<polygon fill="black" stroke="black" points="155.65,-631.62 152.15,-621.62 148.65,-631.62 155.65,-631.62"/>
</g>
<!-- node6 -->
<g id="node5" class="node">
<title>node6</title>
<polygon fill="none" stroke="gray" points="178.15,-548 124.15,-548 124.15,-512 178.15,-512 178.15,-548"/>
<text text-anchor="middle" x="151.15" y="-525.8" font-family="Times,serif" font-size="14.00">LT</text>
</g>
<!-- node5&#45;&gt;node6 -->
<g id="edge4" class="edge">
<title>node5-&gt;node6</title>
<path fill="none" stroke="black" d="M151.9,-583.7C151.8,-576.41 151.67,-567.73 151.55,-559.54"/>
<polygon fill="black" stroke="black" points="155.06,-559.57 151.41,-549.62 148.06,-559.67 155.06,-559.57"/>
</g>
<!-- node7 -->
<g id="node6" class="node">
<title>node7</title>
<polygon fill="none" stroke="gray" points="196.85,-476 103.44,-476 103.44,-440 196.85,-440 196.85,-476"/>
<text text-anchor="middle" x="150.15" y="-453.8" font-family="Times,serif" font-size="14.00">PUSH1 0x0D</text>
</g>
<!-- node6&#45;&gt;node7 -->
<g id="edge5" class="edge">
<title>node6-&gt;node7</title>
<path fill="none" stroke="black" d="M150.9,-511.7C150.8,-504.41 150.67,-495.73 150.55,-487.54"/>
<polygon fill="black" stroke="black" points="154.06,-487.57 150.41,-477.62 147.06,-487.67 154.06,-487.57"/>
</g>
<!-- node9 -->
<g id="node7" class="node">
<title>node9</title>
<polygon fill="none" stroke="gray" points="178.37,-404 121.92,-404 121.92,-368 178.37,-368 178.37,-404"/>
<text text-anchor="middle" x="150.15" y="-381.8" font-family="Times,serif" font-size="14.00">JUMPI</text>
</g>
<!-- node7&#45;&gt;node9 -->
<g id="edge6" class="edge">
<title>node7-&gt;node9</title>
<path fill="none" stroke="black" d="M150.15,-439.7C150.15,-432.41 150.15,-423.73 150.15,-415.54"/>
<polygon fill="black" stroke="black" points="153.65,-415.62 150.15,-405.62 146.65,-415.62 153.65,-415.62"/>
</g>
<!-- node10 -->
<g id="node8" class="node">
<title>node10</title>
<polygon fill="none" stroke="gray" points="90.29,-332 0,-332 0,-296 90.29,-296 90.29,-332"/>
<text text-anchor="middle" x="45.15" y="-309.8" font-family="Times,serif" font-size="14.00">PUSH1 0x14</text>
</g>
<!-- node9&#45;&gt;node10 -->
<g id="edge7" class="edge">
<title>node9-&gt;node10</title>
<path fill="none" stroke="red" stroke-dasharray="5,2" d="M123.92,-367.52C110.79,-358.76 94.71,-348.04 80.51,-338.58"/>
<polygon fill="red" stroke="red" points="82.56,-335.73 72.3,-333.1 78.68,-341.56 82.56,-335.73"/>
</g>
<!-- node13 -->
<g id="node10" class="node">
<title>node13</title>
<polygon fill="none" stroke="gray" points="195.54,-332 108.75,-332 108.75,-296 195.54,-296 195.54,-332"/>
<text text-anchor="middle" x="152.15" y="-309.8" font-family="Times,serif" font-size="14.00">JUMPDEST</text>
</g>
<!-- node9&#45;&gt;node13 -->
<g id="edge8" class="edge">
<title>node9-&gt;node13</title>
<path fill="none" stroke="blue" stroke-dasharray="5,2" d="M150.64,-367.7C150.85,-360.41 151.1,-351.73 151.33,-343.54"/>
<polygon fill="blue" stroke="blue" points="154.83,-343.71 151.61,-333.62 147.83,-343.51 154.83,-343.71"/>
</g>
<!-- node12 -->
<g id="node9" class="node">
<title>node12</title>
<polygon fill="none" stroke="gray" points="72.15,-260 18.15,-260 18.15,-224 72.15,-224 72.15,-260"/>
<text text-anchor="middle" x="45.15" y="-237.8" font-family="Times,serif" font-size="14.00">JUMP</text>
</g>
<!-- node10&#45;&gt;node12 -->
<g id="edge9" class="edge">
<title>node10-&gt;node12</title>
<path fill="none" stroke="black" d="M45.15,-295.7C45.15,-288.41 45.15,-279.73 45.15,-271.54"/>
<polygon fill="black" stroke="black" points="48.65,-271.62 45.15,-261.62 41.65,-271.62 48.65,-271.62"/>
</g>
<!-- node20 -->
<g id="node15" class="node">
<title>node20</title>
<polygon fill="none" stroke="gray" points="88.54,-188 1.75,-188 1.75,-152 88.54,-152 88.54,-188"/>
<text text-anchor="middle" x="45.15" y="-165.8" font-family="Times,serif" font-size="14.00">JUMPDEST</text>
</g>
<!-- node12&#45;&gt;node20 -->
<g id="edge10" class="edge">
<title>node12-&gt;node20</title>
<path fill="none" stroke="black" d="M45.15,-223.7C45.15,-216.41 45.15,-207.73 45.15,-199.54"/>
<polygon fill="black" stroke="black" points="48.65,-199.62 45.15,-189.62 41.65,-199.62 48.65,-199.62"/>
</g>
<!-- node14 -->
<g id="node11" class="node">
<title>node14</title>
<polygon fill="none" stroke="gray" points="197.29,-260 107,-260 107,-224 197.29,-224 197.29,-260"/>
<text text-anchor="middle" x="152.15" y="-237.8" font-family="Times,serif" font-size="14.00">PUSH1 0x01</text>
</g>
<!-- node13&#45;&gt;node14 -->
<g id="edge11" class="edge">
<title>node13-&gt;node14</title>
<path fill="none" stroke="black" d="M152.15,-295.7C152.15,-288.41 152.15,-279.73 152.15,-271.54"/>
<polygon fill="black" stroke="black" points="155.65,-271.62 152.15,-261.62 148.65,-271.62 155.65,-271.62"/>
</g>
<!-- node16 -->
<g id="node12" class="node">
<title>node16</title>
<polygon fill="none" stroke="gray" points="179.15,-188 125.15,-188 125.15,-152 179.15,-152 179.15,-188"/>
<text text-anchor="middle" x="152.15" y="-165.8" font-family="Times,serif" font-size="14.00">ADD</text>
</g>
<!-- node14&#45;&gt;node16 -->
<g id="edge12" class="edge">
<title>node14-&gt;node16</title>
<path fill="none" stroke="black" d="M152.15,-223.7C152.15,-216.41 152.15,-207.73 152.15,-199.54"/>
<polygon fill="black" stroke="black" points="155.65,-199.62 152.15,-189.62 148.65,-199.62 155.65,-199.62"/>
</g>
<!-- node17 -->
<g id="node13" class="node">
<title>node17</title>
<polygon fill="none" stroke="gray" points="197.29,-116 107,-116 107,-80 197.29,-80 197.29,-116"/>
<text text-anchor="middle" x="152.15" y="-93.8" font-family="Times,serif" font-size="14.00">PUSH1 0x02</text>
</g>
<!-- node16&#45;&gt;node17 -->
<g id="edge13" class="edge">
<title>node16-&gt;node17</title>
<path fill="none" stroke="black" d="M152.15,-151.7C152.15,-144.41 152.15,-135.73 152.15,-127.54"/>
<polygon fill="black" stroke="black" points="155.65,-127.62 152.15,-117.62 148.65,-127.62 155.65,-127.62"/>
</g>
<!-- node19 -->
<g id="node14" class="node">
<title>node19</title>
<polygon fill="none" stroke="gray" points="215.15,-40 161.15,-40 161.15,-4 215.15,-4 215.15,-40"/>
<text text-anchor="middle" x="188.15" y="-17.8" font-family="Times,serif" font-size="14.00">JUMP</text>
</g>
<!-- node17&#45;&gt;node19 -->
<g id="edge14" class="edge">
<title>node17-&gt;node19</title>
<path fill="none" stroke="black" d="M160.5,-79.84C164.74,-71.12 169.99,-60.32 174.78,-50.48"/>
<polygon fill="black" stroke="black" points="177.83,-52.21 179.06,-41.69 171.53,-49.15 177.83,-52.21"/>
</g>
<!-- node19&#45;&gt;node2 -->
<g id="edge15" class="edge">
<title>node19-&gt;node2</title>
<path fill="none" stroke="black" d="M195.46,-40.17C206.24,-67.1 225.15,-121.15 225.15,-169 225.15,-603 225.15,-603 225.15,-603 225.15,-643.75 210.7,-689.02 199.86,-717.25"/>
<polygon fill="black" stroke="black" points="196.63,-715.89 196.19,-726.48 203.14,-718.48 196.63,-715.89"/>
</g>
<!-- node21 -->
<g id="node16" class="node">
<title>node21</title>
<polygon fill="none" stroke="gray" points="72.15,-116 18.15,-116 18.15,-80 72.15,-80 72.15,-116"/>
<text text-anchor="middle" x="45.15" y="-93.8" font-family="Times,serif" font-size="14.00">STOP</text>
</g>
<!-- node20&#45;&gt;node21 -->
<g id="edge16" class="edge">
<title>node20-&gt;node21</title>
<path fill="none" stroke="black" d="M45.15,-151.7C45.15,-144.41 45.15,-135.73 45.15,-127.54"/>
<polygon fill="black" stroke="black" points="48.65,-127.62 45.15,-117.62 41.65,-127.62 48.65,-127.62"/>
</g>
<!-- node22 -->
<g id="node17" class="node">
<title>node22</title>
<polygon fill="none" stroke="black" points="72.15,-40 18.15,-40 18.15,-4 72.15,-4 72.15,-40"/>
<polygon fill="none" stroke="black" points="76.15,-44 14.15,-44 14.15,0 76.15,0 76.15,-44"/>
<text text-anchor="middle" x="45.15" y="-17.8" font-family="Times,serif" font-size="14.00">ret</text>
</g>
<!-- node21&#45;&gt;node22 -->
<g id="edge17" class="edge">
<title>node21-&gt;node22</title>
<path fill="none" stroke="black" d="M45.15,-79.84C45.15,-72.64 45.15,-64.02 45.15,-55.7"/>
<polygon fill="black" stroke="black" points="48.65,-55.82 45.15,-45.82 41.65,-55.82 48.65,-55.82"/>
</g>
</g>
</svg>